<svg xmlns="http://www.w3.org/2000/svg" xmlns:xlink="http://www.w3.org/1999/xlink" width="400" zoomAndPan="magnify" viewBox="0 0 300 74.999997" height="100" preserveAspectRatio="xMidYMid meet" version="1.0"><defs><g/><clipPath id="a35da2ddff"><path d="M 0.878906 0 L 271.121094 0 L 271.121094 75 L 0.878906 75 Z M 0.878906 0 " clip-rule="nonzero"/></clipPath><clipPath id="01a6f68cc0"><rect x="0" width="272" y="0" height="75"/></clipPath><clipPath id="fd308354c3"><path d="M 60 0 L 213 0 L 213 67 L 60 67 Z M 60 0 " clip-rule="nonzero"/></clipPath><clipPath id="89712482e6"><path d="M 132.796875 0.410156 L 139.199219 0.410156 L 139.199219 6.8125 L 132.796875 6.8125 Z M 132.796875 0.410156 " clip-rule="nonzero"/></clipPath><clipPath id="908cd41f7b"><path d="M 139.199219 1.910156 L 139.199219 5.3125 C 139.199219 5.710938 139.042969 6.089844 138.761719 6.371094 C 138.480469 6.652344 138.097656 6.8125 137.699219 6.8125 L 134.296875 6.8125 C 133.898438 6.8125 133.519531 6.652344 133.238281 6.371094 C 132.957031 6.089844 132.796875 5.710938 132.796875 5.3125 L 132.796875 1.910156 C 132.796875 1.511719 132.957031 1.128906 133.238281 0.847656 C 133.519531 0.566406 133.898438 0.410156 134.296875 0.410156 L 137.699219 0.410156 C 138.097656 0.410156 138.480469 0.566406 138.761719 0.847656 C 139.042969 1.128906 139.199219 1.511719 139.199219 1.910156 Z M 139.199219 1.910156 " clip-rule="nonzero"/></clipPath><clipPath id="f8e0b3bf29"><path d="M 0.796875 0.410156 L 7.199219 0.410156 L 7.199219 6.8125 L 0.796875 6.8125 Z M 0.796875 0.410156 " clip-rule="nonzero"/></clipPath><clipPath id="96d711018d"><path d="M 7.199219 1.910156 L 7.199219 5.3125 C 7.199219 5.710938 7.042969 6.089844 6.761719 6.371094 C 6.480469 6.652344 6.097656 6.8125 5.699219 6.8125 L 2.296875 6.8125 C 1.898438 6.8125 1.519531 6.652344 1.238281 6.371094 C 0.957031 6.089844 0.796875 5.710938 0.796875 5.3125 L 0.796875 1.910156 C 0.796875 1.511719 0.957031 1.128906 1.238281 0.847656 C 1.519531 0.566406 1.898438 0.410156 2.296875 0.410156 L 5.699219 0.410156 C 6.097656 0.410156 6.480469 0.566406 6.761719 0.847656 C 7.042969 1.128906 7.199219 1.511719 7.199219 1.910156 Z M 7.199219 1.910156 " clip-rule="nonzero"/></clipPath><clipPath id="a1b1fa6ae5"><rect x="0" width="8" y="0" height="7"/></clipPath><clipPath id="adb0a6bfef"><rect x="0" width="272" y="0" height="75"/></clipPath></defs><g transform="matrix(1, 0, 0, 1, 14, -0.000000000000001893)"><g clip-path="url(#adb0a6bfef)"><g clip-path="url(#a35da2ddff)"><g transform="matrix(1, 0, 0, 1, 0, -0.000000000000001887)"><g clip-path="url(#01a6f68cc0)"><g fill="#000000" fill-opacity="1"><g transform="translate(1.398523, 63.938918)"><g><path d="M 12.28125 -30.125 L 12.28125 -21.5 L 25.78125 -21.5 L 25.78125 -14.46875 L 12.28125 -14.46875 L 12.28125 0 L 4.125 0 L 4.125 -37.203125 L 26.859375 -37.203125 L 26.859375 -30.125 Z M 12.28125 -30.125 "/></g></g></g><g fill="#000000" fill-opacity="1"><g transform="translate(30.294417, 63.938918)"><g><path d="M 12.28125 0.328125 C 9.132812 0.328125 6.941406 -0.257812 5.703125 -1.4375 C 4.472656 -2.625 3.859375 -4.539062 3.859375 -7.1875 L 3.859375 -40.75 L 11.640625 -40.75 L 11.640625 -9.0625 C 11.640625 -7.8125 11.816406 -6.960938 12.171875 -6.515625 C 12.523438 -6.066406 13.148438 -5.84375 14.046875 -5.84375 C 14.648438 -5.84375 15.164062 -5.894531 15.59375 -6 L 15.59375 0 C 14.59375 0.21875 13.488281 0.328125 12.28125 0.328125 Z M 12.28125 0.328125 "/></g></g></g><g fill="#000000" fill-opacity="1"><g transform="translate(46.591917, 63.938918)"><g><path d="M 7.671875 -32.96875 C 6.421875 -32.96875 5.5 -33.054688 4.90625 -33.234375 C 4.3125 -33.410156 3.898438 -33.785156 3.671875 -34.359375 C 3.441406 -34.929688 3.328125 -35.84375 3.328125 -37.09375 C 3.328125 -38.3125 3.441406 -39.195312 3.671875 -39.75 C 3.898438 -40.300781 4.3125 -40.664062 4.90625 -40.84375 C 5.5 -41.03125 6.421875 -41.125 7.671875 -41.125 C 8.953125 -41.125 9.878906 -41.03125 10.453125 -40.84375 C 11.023438 -40.664062 11.425781 -40.304688 11.65625 -39.765625 C 11.894531 -39.234375 12.015625 -38.34375 12.015625 -37.09375 C 12.015625 -35.84375 11.894531 -34.929688 11.65625 -34.359375 C 11.425781 -33.785156 11.015625 -33.410156 10.421875 -33.234375 C 9.835938 -33.054688 8.921875 -32.96875 7.671875 -32.96875 Z M 3.75 -28.953125 L 11.53125 -28.953125 L 11.53125 0 L 3.75 0 Z M 3.75 -28.953125 "/></g></g></g><g fill="#000000" fill-opacity="1"><g transform="translate(61.924429, 63.938918)"><g><path d="M 20.421875 -29.484375 C 23.460938 -29.484375 25.820312 -28.882812 27.5 -27.6875 C 29.175781 -26.488281 30.335938 -24.804688 30.984375 -22.640625 C 31.628906 -20.484375 31.953125 -17.757812 31.953125 -14.46875 C 31.953125 -9.75 31.117188 -6.066406 29.453125 -3.421875 C 27.796875 -0.785156 24.785156 0.53125 20.421875 0.53125 C 17.921875 0.53125 15.988281 0.164062 14.625 -0.5625 C 13.269531 -1.289062 12.289062 -2.335938 11.6875 -3.703125 L 11.6875 10.71875 L 3.90625 10.71875 L 3.90625 -28.953125 L 11.6875 -28.953125 L 11.6875 -25.46875 C 12.332031 -26.675781 13.359375 -27.644531 14.765625 -28.375 C 16.179688 -29.113281 18.066406 -29.484375 20.421875 -29.484375 Z M 17.953125 -5.359375 C 20.390625 -5.359375 22.007812 -6.132812 22.8125 -7.6875 C 23.613281 -9.25 24.015625 -11.507812 24.015625 -14.46875 C 24.015625 -17.507812 23.613281 -19.804688 22.8125 -21.359375 C 22.007812 -22.921875 20.390625 -23.703125 17.953125 -23.703125 C 15.421875 -23.703125 13.671875 -22.941406 12.703125 -21.421875 C 11.742188 -19.898438 11.265625 -17.582031 11.265625 -14.46875 C 11.265625 -11.46875 11.753906 -9.195312 12.734375 -7.65625 C 13.710938 -6.125 15.453125 -5.359375 17.953125 -5.359375 Z M 17.953125 -5.359375 "/></g></g></g><g fill="#000000" fill-opacity="1"><g transform="translate(96.28856, 63.938918)"><g><path d="M 13.78125 0.53125 C 11.78125 0.53125 9.785156 0.394531 7.796875 0.125 C 5.816406 -0.132812 4.203125 -0.441406 2.953125 -0.796875 L 2.953125 -7.9375 C 4.160156 -7.507812 5.75 -7.148438 7.71875 -6.859375 C 9.6875 -6.578125 11.597656 -6.4375 13.453125 -6.4375 C 15.921875 -6.4375 17.628906 -6.753906 18.578125 -7.390625 C 19.523438 -8.035156 20 -9.195312 20 -10.875 C 20 -11.882812 19.828125 -12.671875 19.484375 -13.234375 C 19.148438 -13.804688 18.507812 -14.316406 17.5625 -14.765625 C 16.613281 -15.210938 15.171875 -15.671875 13.234375 -16.140625 C 10.523438 -16.773438 8.445312 -17.492188 7 -18.296875 C 5.550781 -19.109375 4.519531 -20.175781 3.90625 -21.5 C 3.300781 -22.820312 3 -24.609375 3 -26.859375 C 3 -30.679688 4.148438 -33.445312 6.453125 -35.15625 C 8.765625 -36.875 12.15625 -37.734375 16.625 -37.734375 C 18.582031 -37.734375 20.382812 -37.609375 22.03125 -37.359375 C 23.675781 -37.109375 25.050781 -36.789062 26.15625 -36.40625 L 26.15625 -29.703125 C 25.195312 -30.023438 23.796875 -30.328125 21.953125 -30.609375 C 20.109375 -30.898438 18.4375 -31.046875 16.9375 -31.046875 C 14.757812 -31.046875 13.210938 -30.757812 12.296875 -30.1875 C 11.390625 -29.613281 10.9375 -28.578125 10.9375 -27.078125 C 10.9375 -26.210938 11.085938 -25.539062 11.390625 -25.0625 C 11.691406 -24.582031 12.28125 -24.15625 13.15625 -23.78125 C 14.03125 -23.40625 15.398438 -22.984375 17.265625 -22.515625 C 20.265625 -21.765625 22.523438 -20.925781 24.046875 -20 C 25.566406 -19.070312 26.617188 -17.890625 27.203125 -16.453125 C 27.796875 -15.023438 28.09375 -13.097656 28.09375 -10.671875 C 28.09375 -6.921875 26.957031 -4.113281 24.6875 -2.25 C 22.414062 -0.394531 18.78125 0.53125 13.78125 0.53125 Z M 13.78125 0.53125 "/></g></g></g><g fill="#000000" fill-opacity="1"><g transform="translate(127.275248, 63.938918)"><g><path d="M 20.421875 -29.484375 C 23.460938 -29.484375 25.820312 -28.882812 27.5 -27.6875 C 29.175781 -26.488281 30.335938 -24.804688 30.984375 -22.640625 C 31.628906 -20.484375 31.953125 -17.757812 31.953125 -14.46875 C 31.953125 -9.75 31.117188 -6.066406 29.453125 -3.421875 C 27.796875 -0.785156 24.785156 0.53125 20.421875 0.53125 C 17.921875 0.53125 15.988281 0.164062 14.625 -0.5625 C 13.269531 -1.289062 12.289062 -2.335938 11.6875 -3.703125 L 11.6875 10.71875 L 3.90625 10.71875 L 3.90625 -28.953125 L 11.6875 -28.953125 L 11.6875 -25.46875 C 12.332031 -26.675781 13.359375 -27.644531 14.765625 -28.375 C 16.179688 -29.113281 18.066406 -29.484375 20.421875 -29.484375 Z M 17.953125 -5.359375 C 20.390625 -5.359375 22.007812 -6.132812 22.8125 -7.6875 C 23.613281 -9.25 24.015625 -11.507812 24.015625 -14.46875 C 24.015625 -17.507812 23.613281 -19.804688 22.8125 -21.359375 C 22.007812 -22.921875 20.390625 -23.703125 17.953125 -23.703125 C 15.421875 -23.703125 13.671875 -22.941406 12.703125 -21.421875 C 11.742188 -19.898438 11.265625 -17.582031 11.265625 -14.46875 C 11.265625 -11.46875 11.753906 -9.195312 12.734375 -7.65625 C 13.710938 -6.125 15.453125 -5.359375 17.953125 -5.359375 Z M 17.953125 -5.359375 "/></g></g></g><g fill="#000000" fill-opacity="1"><g transform="translate(161.639387, 63.938918)"><g><path d="M 16.03125 -29.4375 C 20.75 -29.4375 24.097656 -28.664062 26.078125 -27.125 C 28.066406 -25.59375 29.0625 -23.234375 29.0625 -20.046875 L 29.0625 0 L 22.09375 0 L 21.34375 -3.375 C 20.726562 -2.226562 19.609375 -1.289062 17.984375 -0.5625 C 16.359375 0.164062 14.398438 0.53125 12.109375 0.53125 C 8.859375 0.53125 6.394531 -0.195312 4.71875 -1.65625 C 3.039062 -3.125 2.203125 -5.34375 2.203125 -8.3125 C 2.203125 -11.5625 3.179688 -13.890625 5.140625 -15.296875 C 7.109375 -16.710938 10.09375 -17.421875 14.09375 -17.421875 L 21.28125 -17.421875 L 21.28125 -18.171875 C 21.28125 -19.390625 21.117188 -20.335938 20.796875 -21.015625 C 20.472656 -21.691406 19.863281 -22.179688 18.96875 -22.484375 C 18.082031 -22.785156 16.800781 -22.9375 15.125 -22.9375 C 12.90625 -22.9375 10.847656 -22.757812 8.953125 -22.40625 L 8.953125 -29 C 11.304688 -29.289062 13.664062 -29.4375 16.03125 -29.4375 Z M 14.09375 -5.421875 C 15.8125 -5.421875 17.304688 -5.734375 18.578125 -6.359375 C 19.847656 -6.984375 20.75 -7.796875 21.28125 -8.796875 L 21.28125 -12.171875 L 15.28125 -12.171875 C 13.28125 -12.171875 11.875 -11.921875 11.0625 -11.421875 C 10.257812 -10.921875 9.859375 -9.972656 9.859375 -8.578125 C 9.859375 -7.472656 10.195312 -6.671875 10.875 -6.171875 C 11.5625 -5.671875 12.632812 -5.421875 14.09375 -5.421875 Z M 14.09375 -5.421875 "/></g></g></g><g fill="#000000" fill-opacity="1"><g transform="translate(194.770477, 63.938918)"><g><path d="M 16.71875 0.53125 C 13.539062 0.53125 10.914062 0.0859375 8.84375 -0.796875 C 6.769531 -1.691406 5.175781 -3.238281 4.0625 -5.4375 C 2.957031 -7.632812 2.40625 -10.644531 2.40625 -14.46875 C 2.40625 -18.289062 2.957031 -21.300781 4.0625 -23.5 C 5.175781 -25.695312 6.769531 -27.242188 8.84375 -28.140625 C 10.914062 -29.035156 13.539062 -29.484375 16.71875 -29.484375 C 18.113281 -29.484375 19.484375 -29.398438 20.828125 -29.234375 C 22.171875 -29.078125 23.285156 -28.859375 24.171875 -28.578125 L 24.171875 -22.03125 C 22.285156 -22.75 20.144531 -23.109375 17.75 -23.109375 C 15.957031 -23.109375 14.535156 -22.847656 13.484375 -22.328125 C 12.429688 -21.804688 11.65625 -20.929688 11.15625 -19.703125 C 10.65625 -18.472656 10.40625 -16.726562 10.40625 -14.46875 C 10.40625 -12.21875 10.65625 -10.472656 11.15625 -9.234375 C 11.65625 -8.003906 12.445312 -7.140625 13.53125 -6.640625 C 14.625 -6.140625 16.082031 -5.890625 17.90625 -5.890625 C 20.332031 -5.890625 22.515625 -6.25 24.453125 -6.96875 L 24.453125 -0.59375 C 23.628906 -0.269531 22.472656 -0.00390625 20.984375 0.203125 C 19.503906 0.421875 18.082031 0.53125 16.71875 0.53125 Z M 16.71875 0.53125 "/></g></g></g><g fill="#000000" fill-opacity="1"><g transform="translate(221.521969, 63.938918)"><g><path d="M 29.109375 -16.78125 C 29.109375 -15.457031 29.019531 -14.117188 28.84375 -12.765625 L 10.1875 -11.578125 C 10.332031 -9.503906 11.03125 -7.984375 12.28125 -7.015625 C 13.53125 -6.054688 15.441406 -5.578125 18.015625 -5.578125 C 19.734375 -5.578125 21.507812 -5.78125 23.34375 -6.1875 C 25.1875 -6.601562 26.609375 -7.078125 27.609375 -7.609375 L 27.609375 -1.5 C 26.679688 -0.96875 25.195312 -0.492188 23.15625 -0.078125 C 21.125 0.328125 18.910156 0.53125 16.515625 0.53125 C 13.398438 0.53125 10.816406 0.0859375 8.765625 -0.796875 C 6.710938 -1.691406 5.140625 -3.238281 4.046875 -5.4375 C 2.953125 -7.632812 2.40625 -10.644531 2.40625 -14.46875 C 2.40625 -18.289062 2.957031 -21.300781 4.0625 -23.5 C 5.175781 -25.695312 6.769531 -27.242188 8.84375 -28.140625 C 10.914062 -29.035156 13.539062 -29.484375 16.71875 -29.484375 C 19.9375 -29.484375 22.457031 -28.960938 24.28125 -27.921875 C 26.101562 -26.890625 27.363281 -25.453125 28.0625 -23.609375 C 28.757812 -21.773438 29.109375 -19.5 29.109375 -16.78125 Z M 22.03125 -17.90625 C 22.03125 -19.726562 21.671875 -21.140625 20.953125 -22.140625 C 20.242188 -23.140625 18.832031 -23.640625 16.71875 -23.640625 C 14.363281 -23.640625 12.710938 -23.128906 11.765625 -22.109375 C 10.816406 -21.097656 10.289062 -19.394531 10.1875 -17 Z M 22.03125 -17.90625 "/></g></g></g><g fill="#1800ad" fill-opacity="1"><g transform="translate(252.945224, 63.938918)"><g><path d="M 8.84375 0.328125 C 7.414062 0.328125 6.378906 0.210938 5.734375 -0.015625 C 5.085938 -0.253906 4.65625 -0.695312 4.4375 -1.34375 C 4.226562 -1.988281 4.125 -3.023438 4.125 -4.453125 C 4.125 -5.910156 4.226562 -6.953125 4.4375 -7.578125 C 4.65625 -8.210938 5.085938 -8.644531 5.734375 -8.875 C 6.378906 -9.101562 7.414062 -9.21875 8.84375 -9.21875 C 10.238281 -9.21875 11.253906 -9.101562 11.890625 -8.875 C 12.535156 -8.644531 12.972656 -8.207031 13.203125 -7.5625 C 13.441406 -6.914062 13.5625 -5.878906 13.5625 -4.453125 C 13.5625 -3.023438 13.441406 -1.988281 13.203125 -1.34375 C 12.972656 -0.695312 12.535156 -0.253906 11.890625 -0.015625 C 11.253906 0.210938 10.238281 0.328125 8.84375 0.328125 Z M 8.84375 0.328125 "/></g></g></g></g></g></g><g clip-path="url(#fd308354c3)"><path stroke-linecap="round" transform="matrix(-0.756585, 0, 0, -0.756585, 171.57299, 23.456189)" fill="none" stroke-linejoin="miter" d="M 7.851297 18.71992 C 33.289392 1.07279 58.727488 1.093442 84.165583 18.781876 " stroke="#000000" stroke-width="11" stroke-opacity="1" stroke-miterlimit="4"/></g><g clip-path="url(#89712482e6)"><g clip-path="url(#908cd41f7b)"><g transform="matrix(1, 0, 0, 1, 132, -0.000000000000001887)"><g clip-path="url(#a1b1fa6ae5)"><g clip-path="url(#f8e0b3bf29)"><g clip-path="url(#96d711018d)"><path fill="#1800ad" d="M 0.796875 0.410156 L 7.199219 0.410156 L 7.199219 6.8125 L 0.796875 6.8125 Z M 0.796875 0.410156 " fill-opacity="1" fill-rule="nonzero"/></g></g></g></g></g></g></g></g></svg>